<svg width="43" height="30" viewBox="0 0 43 30" fill="none" xmlns="http://www.w3.org/2000/svg">
<path fill-rule="evenodd" clip-rule="evenodd" d="M8.95269 11.4744C8.90408 11.9194 8.87914 12.3716 8.87914 12.8296C8.87914 14.5385 9.22637 16.1657 9.85394 17.645C11.3762 17.0688 13.0742 16.6058 14.8987 16.2796C14.7442 15.1818 14.6617 14.0246 14.6617 12.8294C14.6617 12.7663 14.662 12.7032 14.6624 12.6402C12.6498 12.3683 10.7354 11.9742 8.95269 11.4744ZM8.47562 11.3372C8.4189 11.8268 8.38975 12.3248 8.38975 12.8296C8.38975 14.6004 8.74866 16.288 9.3979 17.8231C7.61228 18.5426 6.08239 19.424 4.89804 20.4287C2.11534 18.3148 0.489384 15.6721 0.489384 12.8296C0.489384 11.3086 0.954064 9.84758 1.81117 8.49344C3.68613 9.62554 5.94103 10.5897 8.47562 11.3372ZM9.01624 10.9839C10.7778 11.4815 12.6737 11.8751 14.6707 12.1475C14.7287 9.95484 15.0648 7.90486 15.6127 6.13678C14.9972 5.98606 14.4091 5.81115 13.8534 5.61441C13.144 5.36328 12.4846 5.07561 11.8867 4.75572C10.3936 6.48011 9.37038 8.62254 9.01624 10.9839ZM11.4518 4.51091C9.94809 6.27483 8.91376 8.4511 8.54208 10.8465C6.08215 10.1154 3.89767 9.17892 2.08315 8.08598C3.59718 5.93081 6.11782 4.07177 9.31672 2.73104C9.8425 3.38899 10.5689 3.98776 11.4518 4.51091ZM12.2248 4.38091C12.7681 4.66439 13.3678 4.92337 14.0167 5.15308C14.5672 5.34798 15.1515 5.52118 15.7644 5.67006C15.9904 5.00724 16.247 4.3883 16.5306 3.82125C17.2248 2.43285 18.095 1.32986 19.0887 0.672646C16.4025 1.14016 14.0146 2.47623 12.2248 4.38091ZM20.8912 0.505521C19.4106 0.661035 18.0213 1.934 16.9683 4.04011C16.7018 4.57314 16.4591 5.1556 16.244 5.78028C17.6715 6.09013 19.2406 6.27053 20.8912 6.29051V0.505521ZM20.8912 6.77993C19.1891 6.75971 17.5678 6.57209 16.0907 6.24773C15.5475 7.98816 15.2121 10.0232 15.1586 12.2114C16.996 12.4419 18.9153 12.5704 20.8912 12.5836V6.77993ZM21.3806 12.5845V6.78112C23.1286 6.76886 24.7934 6.58007 26.3069 6.24773C26.8508 7.99026 27.1863 10.0281 27.2391 12.2193C25.3623 12.4522 23.4005 12.5786 21.3806 12.5845ZM20.8912 13.073C18.9159 13.0599 16.9942 12.9327 15.1514 12.7036C15.1512 12.7455 15.1511 12.7875 15.1511 12.8294C15.1511 13.997 15.2314 15.1265 15.3813 16.197C17.1217 15.9123 18.9719 15.7508 20.8912 15.7326V13.073ZM21.3806 15.7311V13.0739C23.3997 13.068 25.3638 12.9429 27.2462 12.7115C27.2464 12.7508 27.2465 12.7901 27.2465 12.8294C27.2465 13.9906 27.1671 15.1142 27.0188 16.1794C25.2384 15.8942 23.3446 15.7376 21.3806 15.7311ZM27.5016 16.2604C29.3432 16.5833 31.0574 17.0453 32.5943 17.6223C33.2158 16.1491 33.5595 14.5298 33.5595 12.8296C33.5595 12.3737 33.5348 11.9236 33.4866 11.4806C31.6913 11.9828 29.7628 12.3777 27.7352 12.6488C27.7356 12.7089 27.7359 12.7691 27.7359 12.8294C27.7359 14.0177 27.6543 15.1683 27.5016 16.2604ZM27.7271 12.1561C29.7392 11.8845 31.6492 11.49 33.4233 10.9901C33.069 8.61941 32.0404 6.46915 30.5389 4.74069C29.9368 5.0649 29.2717 5.35629 28.5556 5.61039C27.9965 5.80877 27.4046 5.98504 26.7849 6.13678C27.3335 7.90718 27.6698 9.96022 27.7271 12.1561ZM26.6331 5.67006C27.2502 5.52019 27.8382 5.34566 28.3919 5.14917C29.0475 4.91655 29.6528 4.65402 30.2003 4.36652C28.3997 2.45641 25.9964 1.12065 23.2945 0.663115C24.2941 1.31917 25.1695 2.42612 25.867 3.82125C26.1506 4.3883 26.4072 5.00724 26.6331 5.67006ZM21.2193 0C21.2189 0 21.2185 2.12142e-08 21.218 6.36427e-08C21.2133 2.75785e-07 21.2085 1.40014e-06 21.2037 3.50035e-06C21.2021 1.16678e-06 21.2004 0 21.1988 0C21.1957 0 21.1925 4.24285e-06 21.1894 1.26861e-05C16.7861 0.00371067 12.6939 0.816 9.30325 2.20685C5.85878 3.61979 3.1234 5.63637 1.53207 8.02479C0.547076 9.50315 0 11.1253 0 12.8296C0 15.9305 1.80752 18.7488 4.76313 20.9393L4.92196 21.057L5.07041 20.9264C6.27175 19.87 7.8857 18.9368 9.81202 18.1854C11.4205 17.558 13.2427 17.0589 15.2165 16.7208C17.0742 16.4025 19.065 16.2269 21.1366 16.2205C21.1547 16.2204 21.1728 16.2204 21.1909 16.2204C21.212 16.2203 21.2331 16.2203 21.2542 16.2203C23.3282 16.2203 25.3224 16.3899 27.1847 16.7026C29.1756 17.0369 31.0143 17.5345 32.6375 18.1625C34.5731 18.9113 36.1965 19.8432 37.4069 20.8992L37.5557 21.029L37.714 20.911C40.6471 18.7246 42.4392 15.9171 42.4392 12.8296C42.4392 11.1291 41.8946 9.51047 40.9137 8.03479C39.3185 5.63456 36.5682 3.6092 33.1037 2.19365C29.7116 0.807698 25.6201 0 21.2193 0ZM16.8431 0.765727C14.8922 1.47358 13.1617 2.64121 11.7827 4.13764C10.9566 3.65813 10.2828 3.11815 9.79146 2.53785C11.9025 1.70403 14.2847 1.09401 16.8431 0.765727ZM25.5952 0.765622C27.5395 1.47102 29.2648 2.63304 30.6416 4.1221C31.4613 3.64306 32.1295 3.10423 32.6165 2.52556C30.5129 1.69795 28.1414 1.09226 25.5952 0.765622ZM33.0913 2.718C32.57 3.37431 31.8494 3.97197 30.973 4.49472C32.4856 6.26309 33.5256 8.44769 33.8976 10.853C36.3593 10.123 38.5458 9.18754 40.3626 8.09541C38.8444 5.92922 36.3096 4.06164 33.0913 2.718ZM40.6341 8.50318C38.757 9.63434 36.5001 10.5974 33.9638 11.3437C34.02 11.8312 34.0489 12.327 34.0489 12.8296C34.0489 14.5912 33.6937 16.2704 33.0508 17.7992C34.8456 18.5164 36.3846 19.3966 37.5775 20.4009C40.338 18.2916 41.9498 15.6597 41.9498 12.8296C41.9498 11.3122 41.4873 9.85457 40.6341 8.50318ZM21.3806 0.495014V6.29173C23.0773 6.2796 24.6898 6.09799 26.1536 5.78028C25.9385 5.1556 25.6958 4.57314 25.4293 4.04011C24.3465 1.87444 22.9082 0.589692 21.3806 0.495014Z" fill="white"/>
<path d="M17.5332 23.7056L14.9022 23.9947C14.6623 23.3104 14.1747 22.9682 13.4393 22.9682C12.7196 22.9682 12.1493 23.332 11.7285 24.0596C11.3077 24.7871 11.0973 25.5658 11.0973 26.3956C11.0973 26.8754 11.2527 27.2785 11.5633 27.6049C11.878 27.9274 12.2771 28.0886 12.7609 28.0886H12.7845C13.335 28.0886 13.8188 27.9471 14.2356 27.6639L14.4303 26.7377H12.7963L13.1856 24.9326H17.2206L16.3534 28.9971C15.0084 29.6657 13.6752 29.9999 12.3538 29.9999C11.1622 29.9999 10.2164 29.6775 9.51636 29.0325C8.82026 28.3875 8.47222 27.481 8.47222 26.313C8.47222 25.3377 8.69442 24.443 9.13881 23.6289C9.58321 22.8148 10.2085 22.1836 11.0147 21.7353C11.8249 21.283 12.753 21.0569 13.7991 21.0569C15.8441 21.0569 17.0888 21.9398 17.5332 23.7056Z" fill="white"/>
<path d="M27.0685 21.2044L25.2044 29.8525H22.9805L24.5791 23.2455H24.5437L21.3405 29.8525H19.3702L18.9986 23.2455H18.975L17.7303 29.8525H15.5063L17.3527 21.2044H20.6149L20.9394 26.6847H20.963L23.7061 21.2044H27.0685Z" fill="white"/>
<path d="M33.967 21.2044L33.5245 23.3281H30.7165L29.3067 29.8525H26.6226L28.0266 23.3281H25.3425L25.7908 21.2044H33.967Z" fill="white"/>
</svg>
