<svg width="61" height="43" viewBox="0 0 61 43" fill="none" xmlns="http://www.w3.org/2000/svg">
<path fill-rule="evenodd" clip-rule="evenodd" d="M13.0962 16.2224C13.0275 16.8516 12.9922 17.4908 12.9922 18.1383C12.9922 20.5543 13.4831 22.8549 14.3703 24.9463C16.5226 24.1316 18.923 23.4771 21.5026 23.0159C21.2842 21.4638 21.1675 19.8278 21.1675 18.1381C21.1675 18.0488 21.1679 17.9596 21.1685 17.8706C18.3232 17.4861 15.6166 16.929 13.0962 16.2224ZM12.4217 16.0284C12.3415 16.7206 12.3003 17.4246 12.3003 18.1383C12.3003 20.6419 12.8077 23.0278 13.7256 25.1981C11.2011 26.2153 9.03818 27.4614 7.36376 28.8818C3.4296 25.8932 1.13085 22.157 1.13085 18.1384C1.13085 15.9879 1.78781 13.9224 2.99958 12.0079C5.65037 13.6085 8.83833 14.9716 12.4217 16.0284ZM13.186 15.5289C15.6765 16.2324 18.357 16.7889 21.1803 17.174C21.2622 14.074 21.7374 11.1758 22.512 8.6761C21.6418 8.46303 20.8104 8.21574 20.0247 7.93758C19.0218 7.58255 18.0895 7.17584 17.2442 6.72359C15.1333 9.16151 13.6867 12.1905 13.186 15.5289ZM16.6294 6.37747C14.5035 8.87128 13.0411 11.9481 12.5157 15.3346C9.03784 14.301 5.94944 12.977 3.3841 11.4319C5.52462 8.38491 9.08827 5.75662 13.6108 3.86112C14.3542 4.79132 15.3811 5.63785 16.6294 6.37747ZM17.7222 6.19369C18.4904 6.59447 19.3382 6.96061 20.2556 7.28536C21.0339 7.56091 21.86 7.80578 22.7265 8.01626C23.046 7.07918 23.4088 6.20412 23.8097 5.40244C24.7911 3.43954 26.0215 1.88014 27.4263 0.950979C23.6287 1.61195 20.2526 3.50087 17.7222 6.19369ZM29.9747 0.7147C27.8814 0.934563 25.9173 2.73427 24.4285 5.71186C24.0517 6.46545 23.7086 7.28892 23.4045 8.1721C25.4228 8.61016 27.6411 8.8652 29.9747 8.89345V0.7147ZM29.9747 9.58539C27.5683 9.5568 25.2761 9.29154 23.1878 8.83296C22.4198 11.2936 21.9456 14.1707 21.8701 17.2643C24.4677 17.5903 27.1811 17.7719 29.9747 17.7906V9.58539ZM30.6666 17.7919V9.58707C33.1379 9.56974 35.4916 9.30283 37.6314 8.83296C38.4003 11.2965 38.8747 14.1777 38.9494 17.2755C36.2959 17.6048 33.5223 17.7834 30.6666 17.7919ZM29.9747 18.4825C27.182 18.4639 24.4652 18.2841 21.8599 17.9602C21.8596 18.0195 21.8594 18.0788 21.8594 18.1381C21.8594 19.7888 21.9729 21.3857 22.1848 22.8991C24.6454 22.4966 27.2612 22.2683 29.9747 22.2426V18.4825ZM30.6666 22.2405V18.4837C33.5212 18.4754 36.2981 18.2985 38.9593 17.9714C38.9596 18.0269 38.9597 18.0825 38.9597 18.1381C38.9597 19.7798 38.8475 21.3682 38.6378 22.8743C36.1207 22.471 33.4433 22.2496 30.6666 22.2405ZM39.3204 22.9888C41.924 23.4453 44.3475 24.0985 46.5204 24.9142C47.3991 22.8314 47.885 20.542 47.885 18.1383C47.885 17.4938 47.8501 16.8575 47.782 16.2311C45.2438 16.9411 42.5173 17.4994 39.6507 17.8827C39.6513 17.9677 39.6516 18.0528 39.6516 18.1381C39.6516 19.818 39.5363 21.4448 39.3204 22.9888ZM39.6392 17.1862C42.4839 16.8022 45.1843 16.2444 47.6925 15.5376C47.1916 12.186 45.7373 9.14601 43.6145 6.70233C42.7633 7.16069 41.823 7.57266 40.8105 7.9319C40.02 8.21237 39.1832 8.46158 38.3072 8.6761C39.0828 11.1791 39.5581 14.0816 39.6392 17.1862ZM38.0926 8.01626C38.9649 7.80437 39.7962 7.55764 40.5791 7.27984C41.506 6.95096 42.3617 6.57979 43.1358 6.17334C40.5901 3.47284 37.1924 1.58435 33.3724 0.937504C34.7857 1.86503 36.0233 3.43002 37.0095 5.40244C37.4103 6.20412 37.7732 7.07918 38.0926 8.01626ZM30.4386 0C30.438 0 30.4374 2.99925e-08 30.4368 8.99773e-08C30.43 3.89902e-07 30.4233 1.9795e-06 30.4166 4.94875e-06C30.4142 1.64958e-06 30.4119 0 30.4096 0C30.4051 0 30.4007 5.99849e-06 30.3963 1.79355e-05C24.171 0.0052461 18.3854 1.15365 13.5918 3.12001C8.72204 5.11762 4.85479 7.96863 2.60498 11.3454C1.21241 13.4354 0.438965 15.7288 0.438965 18.1384C0.438965 22.5223 2.99441 26.5068 7.17302 29.6037L7.39757 29.7701L7.60746 29.5855C9.30589 28.0919 11.5877 26.7726 14.3111 25.7103C16.5851 24.8232 19.1613 24.1177 21.9519 23.6396C24.5783 23.1897 27.3929 22.9414 30.3217 22.9324C30.3472 22.9323 30.3728 22.9322 30.3984 22.9322C30.4282 22.9321 30.4581 22.9321 30.4879 22.9321C33.4201 22.9321 36.2395 23.1718 38.8723 23.6139C41.6871 24.0865 44.2866 24.7901 46.5816 25.6779C49.3181 26.7366 51.6132 28.054 53.3245 29.5471L53.5348 29.7306L53.7586 29.5638C57.9054 26.4727 60.439 22.5035 60.439 18.1384C60.439 15.7342 59.669 13.4458 58.2824 11.3595C56.0269 7.96608 52.1386 5.10264 47.2406 3.10136C42.4449 1.14191 36.6604 0 30.4386 0ZM24.2516 1.08258C21.4934 2.08334 19.0469 3.73411 17.0972 5.84975C15.9293 5.17182 14.9767 4.4084 14.282 3.58799C17.2666 2.40914 20.6345 1.5467 24.2516 1.08258ZM36.6252 1.08243C39.374 2.0797 41.8133 3.72257 43.7597 5.82777C44.9186 5.15051 45.8633 4.38873 46.5518 3.5706C43.5778 2.40054 40.2249 1.54423 36.6252 1.08243ZM47.223 3.84268C46.4861 4.77057 45.4674 5.61553 44.2282 6.35459C46.3667 8.85469 47.8371 11.9432 48.3629 15.3438C51.8433 14.3118 54.9346 12.9892 57.5032 11.4452C55.3567 8.38266 51.7731 5.7423 47.223 3.84268ZM57.8871 12.0217C55.2331 13.6209 52.0423 14.9825 48.4565 16.0376C48.536 16.7268 48.5769 17.4278 48.5769 18.1383C48.5769 20.6288 48.0747 23.003 47.1658 25.1642C49.7033 26.1783 51.8791 27.4227 53.5657 28.8426C57.4684 25.8605 59.7471 22.1394 59.7471 18.1384C59.7471 15.9931 59.0933 13.9323 57.8871 12.0217ZM30.6666 0.699845V8.89517C33.0653 8.87803 35.3451 8.62127 37.4146 8.1721C37.1105 7.28892 36.7674 6.46545 36.3906 5.71186C34.8597 2.65006 32.8263 0.8337 30.6666 0.699845Z" fill="black"/>
<path d="M25.2275 33.5138L21.5079 33.9225C21.1687 32.955 20.4792 32.4713 19.4395 32.4713C18.422 32.4713 17.6158 32.9856 17.0209 34.0142C16.426 35.0428 16.1285 36.1437 16.1285 37.3169C16.1285 37.9952 16.3481 38.5651 16.7874 39.0266C17.2322 39.4825 17.7965 39.7105 18.4804 39.7105H18.5138C19.2922 39.7105 19.9761 39.5103 20.5654 39.11L20.8406 37.8006H18.5304L19.0809 35.2485H24.7855L23.5595 40.9949C21.658 41.9401 19.7731 42.4127 17.9049 42.4127C16.2202 42.4127 14.883 41.9567 13.8934 41.0449C12.9092 40.133 12.4172 38.8515 12.4172 37.2001C12.4172 35.8212 12.7313 34.5563 13.3596 33.4054C13.9879 32.2544 14.8719 31.3621 16.0117 30.7282C17.1571 30.0888 18.4693 29.7691 19.9483 29.7691C22.8395 29.7691 24.5992 31.0173 25.2275 33.5138Z" fill="black"/>
<path d="M38.7084 29.9776L36.073 42.2042H32.9288L35.1889 32.8633H35.1389L30.6102 42.2042H27.8246L27.2992 32.8633H27.2658L25.5061 42.2042H22.3619L24.9723 29.9776H29.5844L30.0431 37.7255H30.0765L33.9546 29.9776H38.7084Z" fill="black"/>
<path d="M48.4613 29.9776L47.8358 32.98H43.8659L41.8727 42.2042H38.0779L40.0629 32.98H36.2681L36.902 29.9776H48.4613Z" fill="black"/>
</svg>
