<svg width="25" height="24" viewBox="0 0 25 24" fill="none" xmlns="http://www.w3.org/2000/svg">
<path d="M12.439 2.163C15.643 2.163 16.023 2.175 17.289 2.233C20.541 2.381 22.06 3.924 22.208 7.152C22.266 8.417 22.277 8.797 22.277 12.001C22.277 15.206 22.265 15.585 22.208 16.85C22.059 20.075 20.544 21.621 17.289 21.769C16.023 21.827 15.645 21.839 12.439 21.839C9.23496 21.839 8.85497 21.827 7.58996 21.769C4.32996 21.62 2.81896 20.07 2.67096 16.849C2.61296 15.584 2.60096 15.205 2.60096 12C2.60096 8.796 2.61397 8.417 2.67096 7.151C2.81996 3.924 4.33496 2.38 7.58996 2.232C8.85596 2.175 9.23496 2.163 12.439 2.163ZM12.439 0C9.17997 0 8.77197 0.014 7.49196 0.072C3.13397 0.272 0.711965 2.69 0.511965 7.052C0.452965 8.333 0.438965 8.741 0.438965 12C0.438965 15.259 0.452965 15.668 0.510965 16.948C0.710965 21.306 3.12896 23.728 7.49096 23.928C8.77197 23.986 9.17997 24 12.439 24C15.698 24 16.107 23.986 17.387 23.928C21.741 23.728 24.169 21.31 24.366 16.948C24.425 15.668 24.439 15.259 24.439 12C24.439 8.741 24.425 8.333 24.367 7.053C24.171 2.699 21.75 0.273 17.388 0.073C16.107 0.014 15.698 0 12.439 0ZM12.439 5.838C9.03596 5.838 6.27696 8.597 6.27696 12C6.27696 15.403 9.03596 18.163 12.439 18.163C15.842 18.163 18.601 15.404 18.601 12C18.601 8.597 15.842 5.838 12.439 5.838ZM12.439 16C10.23 16 8.43896 14.21 8.43896 12C8.43896 9.791 10.23 8 12.439 8C14.648 8 16.439 9.791 16.439 12C16.439 14.21 14.648 16 12.439 16ZM18.845 4.155C18.049 4.155 17.404 4.8 17.404 5.595C17.404 6.39 18.049 7.035 18.845 7.035C19.64 7.035 20.284 6.39 20.284 5.595C20.284 4.8 19.64 4.155 18.845 4.155Z" fill="black"/>
</svg>
