<svg width="25" height="24" viewBox="0 0 25 24" fill="none" xmlns="http://www.w3.org/2000/svg">
<path d="M19.439 0H5.43896C2.67796 0 0.438965 2.239 0.438965 5V19C0.438965 21.761 2.67796 24 5.43896 24H19.439C22.201 24 24.439 21.761 24.439 19V5C24.439 2.239 22.201 0 19.439 0ZM8.43896 19H5.43896V8H8.43896V19ZM6.93896 6.732C5.97296 6.732 5.18896 5.942 5.18896 4.968C5.18896 3.994 5.97296 3.204 6.93896 3.204C7.90496 3.204 8.68896 3.994 8.68896 4.968C8.68896 5.942 7.90596 6.732 6.93896 6.732ZM20.439 19H17.439V13.396C17.439 10.028 13.439 10.283 13.439 13.396V19H10.439V8H13.439V9.765C14.835 7.179 20.439 6.988 20.439 12.241V19Z" fill="black"/>
</svg>
